{"title":"Cheeni Kum 2007 BluRay nHD x264 (NhaNc3) - Hindi","uid":8280060,"size":2345771351,"categoryP":"video","categoryS":"hd___movies","magnet":"?xt=urn:btih:98cd277542380e1e3631217440dc090736569a34&amp;dn=Cheeni+Kum+2007+BluRay+nHD+x264+%28NhaNc3%29+-+Hindi&amp;tr=udp%3A%2F%2Ftracker.openbittorrent.com%3A80&amp;tr=udp%3A%2F%2Fopen.demonii.com%3A1337&amp;tr=udp%3A%2F%2Ftracker.coppersurfer.tk%3A6969&amp;tr=udp%3A%2F%2Fexodus.desync.com%3A6969","seeders":2,"leechers":2,"uploader":"SJonam","files":1,"time":1363811793,"description":" &lt;a href=&quot;http://desibbrg.org/images/66952052392581364616.gif&quot; rel=&quot;nofollow&quot; target=&quot;_NEW&quot;&gt;http://desibbrg.org/images/66952052392581364616.gif&lt;/a&gt; &lt;a href=&quot;\nhttp://desibbrg.org/images/11603061631568921548.png&quot; rel=&quot;nofollow&quot; target=&quot;_NEW&quot;&gt;\nhttp://desibbrg.org/images/11603061631568921548.png&lt;/a&gt; &lt;a href=&quot;\nhttp://desibbrg.org/images/29900253136194260816.png&quot; rel=&quot;nofollow&quot; target=&quot;_NEW&quot;&gt;\nhttp://desibbrg.org/images/29900253136194260816.png&lt;/a&gt; &lt;a href=&quot;\nhttp://desibbrg.org/images/84720971218586604287.png&quot; rel=&quot;nofollow&quot; target=&quot;_NEW&quot;&gt;\nhttp://desibbrg.org/images/84720971218586604287.png&lt;/a&gt; &lt;a href=&quot;\nhttp://desibbrg.org/images/96560319953600148100.png&quot; rel=&quot;nofollow&quot; target=&quot;_NEW&quot;&gt;\nhttp://desibbrg.org/images/96560319953600148100.png&lt;/a&gt;\n\nMedia Info - \nVideo\nID : 1\nFormat : AVC\nFormat/Info : Advanced Video Codec\nFormat profile : &lt;a class=&quot;__cf_email__&quot; href=&quot;/cdn-cgi/l/email-protection&quot; data-cfemail=&quot;1c54757b745c5028322d&quot;&gt;[email&amp;#160;protected]&lt;/a&gt;&lt;script cf-hash='f9e31' type=&quot;text/javascript&quot;&gt;\n/* &lt;![CDATA[ */!function(){try{var t=&quot;currentScript&quot;in document?document.currentScript:function(){for(var t=document.getElementsByTagName(&quot;script&quot;),e=t.length;e--;)if(t[e].getAttribute(&quot;cf-hash&quot;))return t[e]}();if(t&amp;&amp;t.previousSibling){var e,r,n,i,c=t.previousSibling,a=c.getAttribute(&quot;data-cfemail&quot;);if(a){for(e=&quot;&quot;,r=parseInt(a.substr(0,2),16),n=2;a.length-n;n+=2)i=parseInt(a.substr(n,2),16)^r,e+=String.fromCharCode(i);e=document.createTextNode(e),c.parentNode.replaceChild(e,c)}}}catch(u){}}();/* ]]&gt; */&lt;/script&gt;\nFormat settings, CABAC : Yes\nFormat settings, ReFrames : 8 frames\nCodec ID : V_MPEG4/ISO/AVC\nDuration : 2h 20mn\nBit rate : 1 993 Kbps\nWidth : 1 280 pixels\nHeight : 544 pixels\nDisplay aspect ratio : 2.35:1\nFrame rate : 24.000 fps\nColor space : YUV\nChroma subsampling : 4:2:0\nBit depth : 8 bits\nScan type : Progressive\nBits/(Pixel*Frame) : 0.119\nStream size : 1.92 GiB (88%)\nWriting library : x264 core 98 r1649 20cbe10\nLanguage : English\nDefault : No\nForced : No\n\nAudio\nID : 2\nFormat : AC-3\nFormat/Info : Audio Coding 3\nMode extension : CM (complete main)\nCodec ID : A_AC3\nDuration : 2h 20mn\nBit rate mode : Constant\nBit rate : 224 Kbps\nChannel(s) : 6 channels\nChannel positions : Front: L C R, Side: L R, LFE\nSampling rate : 48.0 KHz\nBit depth : 16 bits\nCompression mode : Lossy\nStream size : 226 MiB (10%)\nLanguage : Hindi\nDefault : Yes\nForced : No\n\nRipper : NhaNc3\n\nSeeding 24x7... Extreme Seeding...\n\n\nEnjoy!\n","torrent":{"xt":"urn:btih:98cd277542380e1e3631217440dc090736569a34","amp;dn":"Cheeni+Kum+2007+BluRay+nHD+x264+%28NhaNc3%29+-+Hindi","amp;tr":["udp%3A%2F%2Ftracker.openbittorrent.com%3A80","udp%3A%2F%2Fopen.demonii.com%3A1337","udp%3A%2F%2Ftracker.coppersurfer.tk%3A6969","udp%3A%2F%2Fexodus.desync.com%3A6969"],"infoHash":"98cd277542380e1e3631217440dc090736569a34","infoHashBuffer":{"type":"Buffer","data":[152,205,39,117,66,56,14,30,54,49,33,116,64,220,9,7,54,86,154,52]},"announce":[],"urlList":[]}}